<svg width="32" height="32" viewBox="0 0 32 32" fill="none" xmlns="http://www.w3.org/2000/svg">
<rect width="32" height="32" rx="8" fill="#005AAA"/>
<path fill-rule="evenodd" clip-rule="evenodd" d="M21.7908 9.15022C23.0709 9.5127 23.9491 10.2975 24.3119 11.4033C24.6822 12.5322 24.7125 15.2781 24.3692 16.5979C24.0348 17.8836 23.2081 18.6608 21.8357 18.9797C21.5731 19.0407 21.3661 19.1126 21.3759 19.1396C21.3951 19.1926 23.0523 21.3803 24.2551 22.9404C24.6637 23.4703 24.9989 23.9255 25 23.9519C25.0011 23.9784 24.0355 24 22.8543 24H20.7067L20.3218 23.4572C20.1102 23.1588 19.3467 22.0629 18.6253 21.0219L17.3137 19.1294H13.5769H9.84012V21.5647V24H7.92006H6V16.5V9L13.6968 9.01884C20.8063 9.03627 21.4239 9.04633 21.7908 9.15022ZM9.84012 14.0787C9.84012 13.132 9.86118 12.3371 9.887 12.3122C9.91275 12.2872 12.1845 12.2752 14.9354 12.2854C20.6078 12.3066 20.3239 12.2808 20.5666 12.7983C20.6763 13.0322 20.6957 13.221 20.6968 14.0665C20.6983 15.1624 20.6417 15.375 20.2798 15.6321C20.095 15.7633 20.0329 15.765 14.9665 15.7823L9.84012 15.7999V14.0787Z" fill="white"/>
<circle cx="27" cy="7" r="2" fill="white"/>
</svg>
