<svg width="32" height="32" viewBox="0 0 32 32" fill="none" xmlns="http://www.w3.org/2000/svg">
<rect width="32" height="32" rx="8" fill="#005AAA"/>
<path fill-rule="evenodd" clip-rule="evenodd" d="M28 16C28 22.627 22.627 28 16 28C9.373 28 4 22.627 4 16C4 9.373 9.373 4 16 4C22.627 4 28 9.373 28 16ZM16.43 12.859C15.263 13.344 12.93 14.349 9.432 15.873C8.864 16.099 8.566 16.32 8.539 16.536C8.493 16.902 8.951 17.046 9.573 17.241C9.658 17.268 9.746 17.295 9.836 17.325C10.449 17.524 11.273 17.757 11.701 17.766C12.09 17.774 12.524 17.614 13.003 17.286C16.271 15.079 17.958 13.964 18.064 13.94C18.139 13.923 18.243 13.901 18.313 13.964C18.383 14.026 18.376 14.144 18.369 14.176C18.323 14.369 16.529 16.038 15.599 16.902C15.309 17.171 15.104 17.362 15.062 17.406C14.968 17.503 14.872 17.596 14.78 17.685C14.21 18.233 13.784 18.645 14.804 19.317C15.294 19.64 15.686 19.907 16.077 20.173C16.504 20.464 16.93 20.754 17.482 21.116C17.622 21.208 17.756 21.303 17.887 21.396C18.384 21.751 18.831 22.069 19.383 22.019C19.703 21.989 20.035 21.688 20.203 20.789C20.6 18.663 21.382 14.059 21.563 12.161C21.574 12.0034 21.5673 11.8451 21.543 11.689C21.5284 11.5629 21.4671 11.4469 21.371 11.364C21.228 11.247 21.006 11.222 20.906 11.224C20.455 11.232 19.763 11.473 16.43 12.859V12.859Z" fill="white"/>
</svg>
